<?xml version="1.0"?>
<mxfile host="www.draw.io" modified="2020-07-20T09:08:47.940Z" agent="5.0 (X11)" etag="edvplUSG449IwiwjSauc" version="13.4.8" pages="3">
  <diagram id="pMbgHGsfxlk1iSCiDAWZ" name="Candidates-distance">
    <mxGraphModel dx="2" dy="1" grid="1" gridSize="10" guides="1" tooltips="1" connect="1" arrows="1" fold="1" page="1" pageScale="1" pageWidth="827" pageHeight="1169" math="1" shadow="0">
      <root>
        <mxCell id="nIeVzLM0rbKuAaq77vy3-0"/>
        <mxCell id="nIeVzLM0rbKuAaq77vy3-1" parent="nIeVzLM0rbKuAaq77vy3-0"/>
        <mxCell id="nIeVzLM0rbKuAaq77vy3-2" value="" style="ellipse;whiteSpace=wrap;html=1;aspect=fixed;fillColor=none;" parent="nIeVzLM0rbKuAaq77vy3-1" vertex="1">
          <mxGeometry x="160" y="130" width="260" height="260" as="geometry"/>
        </mxCell>
        <mxCell id="nIeVzLM0rbKuAaq77vy3-4" value="" style="endArrow=none;html=1;strokeWidth=3;fillColor=#76608a;strokeColor=#B3B3B3;" parent="nIeVzLM0rbKuAaq77vy3-1" edge="1">
          <mxGeometry width="50" height="50" relative="1" as="geometry">
            <mxPoint x="370" y="460" as="sourcePoint"/>
            <mxPoint x="340" y="170" as="targetPoint"/>
          </mxGeometry>
        </mxCell>
        <mxCell id="nIeVzLM0rbKuAaq77vy3-5" value="" style="endArrow=none;html=1;strokeWidth=3;fillColor=#76608a;strokeColor=#B3B3B3;" parent="nIeVzLM0rbKuAaq77vy3-1" edge="1">
          <mxGeometry width="50" height="50" relative="1" as="geometry">
            <mxPoint x="420" y="190" as="sourcePoint"/>
            <mxPoint x="100" y="110" as="targetPoint"/>
          </mxGeometry>
        </mxCell>
        <mxCell id="nIeVzLM0rbKuAaq77vy3-6" value="" style="ellipse;whiteSpace=wrap;html=1;aspect=fixed;fillColor=#d5e8d4;strokeColor=#82b366;rotation=5;" parent="nIeVzLM0rbKuAaq77vy3-1" vertex="1">
          <mxGeometry x="339.58000000000004" y="250" width="20.42" height="20.42" as="geometry"/>
        </mxCell>
        <mxCell id="nIeVzLM0rbKuAaq77vy3-7" value="" style="ellipse;whiteSpace=wrap;html=1;aspect=fixed;fillColor=#d5e8d4;strokeColor=#82b366;rotation=5;" parent="nIeVzLM0rbKuAaq77vy3-1" vertex="1">
          <mxGeometry x="300" y="150" width="20.42" height="20.42" as="geometry"/>
        </mxCell>
        <mxCell id="nIeVzLM0rbKuAaq77vy3-8" value="&lt;font style=&quot;font-size: 16px&quot;&gt;`c_1^A`&lt;/font&gt;" style="text;html=1;strokeColor=none;fillColor=none;align=center;verticalAlign=middle;whiteSpace=wrap;rounded=0;fontColor=#000000;" parent="nIeVzLM0rbKuAaq77vy3-1" vertex="1">
          <mxGeometry x="270" y="130" width="40" height="20" as="geometry"/>
        </mxCell>
        <mxCell id="nIeVzLM0rbKuAaq77vy3-9" value="&lt;font style=&quot;font-size: 16px&quot;&gt;`c_2^A`&lt;/font&gt;" style="text;html=1;strokeColor=none;fillColor=none;align=center;verticalAlign=middle;whiteSpace=wrap;rounded=0;fontColor=#000000;" parent="nIeVzLM0rbKuAaq77vy3-1" vertex="1">
          <mxGeometry x="350" y="259.99999999999994" width="40" height="20" as="geometry"/>
        </mxCell>
        <mxCell id="nIeVzLM0rbKuAaq77vy3-10" style="edgeStyle=orthogonalEdgeStyle;rounded=0;orthogonalLoop=1;jettySize=auto;html=1;exitX=0.5;exitY=1;exitDx=0;exitDy=0;strokeColor=#B3B3B3;strokeWidth=3;fontColor=#000000;" parent="nIeVzLM0rbKuAaq77vy3-1" source="nIeVzLM0rbKuAaq77vy3-8" target="nIeVzLM0rbKuAaq77vy3-8" edge="1">
          <mxGeometry relative="1" as="geometry"/>
        </mxCell>
        <mxCell id="XZUq1Dh7aWPkDNdsNbKA-4" value="" style="endArrow=none;html=1;strokeWidth=3;fillColor=#76608a;strokeColor=#B3B3B3;" parent="nIeVzLM0rbKuAaq77vy3-1" edge="1">
          <mxGeometry width="50" height="50" relative="1" as="geometry">
            <mxPoint x="360" y="330" as="sourcePoint"/>
            <mxPoint x="40" y="250" as="targetPoint"/>
          </mxGeometry>
        </mxCell>
        <mxCell id="XZUq1Dh7aWPkDNdsNbKA-7" value="" style="ellipse;whiteSpace=wrap;html=1;aspect=fixed;fillColor=#d5e8d4;strokeColor=#82b366;rotation=5;" parent="nIeVzLM0rbKuAaq77vy3-1" vertex="1">
          <mxGeometry x="249.58000000000004" y="300" width="20.42" height="20.42" as="geometry"/>
        </mxCell>
        <mxCell id="XZUq1Dh7aWPkDNdsNbKA-8" value="&lt;font style=&quot;font-size: 16px&quot;&gt;`c_3^A`&lt;/font&gt;" style="text;html=1;strokeColor=none;fillColor=none;align=center;verticalAlign=middle;whiteSpace=wrap;rounded=0;fontColor=#000000;" parent="nIeVzLM0rbKuAaq77vy3-1" vertex="1">
          <mxGeometry x="260" y="309.99999999999994" width="40" height="20" as="geometry"/>
        </mxCell>
        <mxCell id="nIeVzLM0rbKuAaq77vy3-21" value="" style="shape=table;html=1;whiteSpace=wrap;startSize=0;container=1;collapsible=0;childLayout=tableLayout;" parent="nIeVzLM0rbKuAaq77vy3-1" vertex="1">
          <mxGeometry x="490" y="160.21" width="139.58" height="160" as="geometry"/>
        </mxCell>
        <mxCell id="nIeVzLM0rbKuAaq77vy3-22" value="" style="shape=partialRectangle;html=1;whiteSpace=wrap;collapsible=0;dropTarget=0;pointerEvents=0;fillColor=none;top=0;left=0;bottom=0;right=0;points=[[0,0.5],[1,0.5]];portConstraint=eastwest;" parent="nIeVzLM0rbKuAaq77vy3-21" vertex="1">
          <mxGeometry width="139.58" height="40" as="geometry"/>
        </mxCell>
        <mxCell id="nIeVzLM0rbKuAaq77vy3-23" value="Candidate" style="shape=partialRectangle;html=1;whiteSpace=wrap;connectable=0;fillColor=none;top=0;left=0;bottom=0;right=0;overflow=hidden;" parent="nIeVzLM0rbKuAaq77vy3-22" vertex="1">
          <mxGeometry width="79" height="40" as="geometry"/>
        </mxCell>
        <mxCell id="nIeVzLM0rbKuAaq77vy3-24" value="Dist to A" style="shape=partialRectangle;html=1;whiteSpace=wrap;connectable=0;fillColor=none;top=0;left=0;bottom=0;right=0;overflow=hidden;" parent="nIeVzLM0rbKuAaq77vy3-22" vertex="1">
          <mxGeometry x="79" width="61" height="40" as="geometry"/>
        </mxCell>
        <mxCell id="nIeVzLM0rbKuAaq77vy3-26" value="" style="shape=partialRectangle;html=1;whiteSpace=wrap;collapsible=0;dropTarget=0;pointerEvents=0;fillColor=none;top=0;left=0;bottom=0;right=0;points=[[0,0.5],[1,0.5]];portConstraint=eastwest;" parent="nIeVzLM0rbKuAaq77vy3-21" vertex="1">
          <mxGeometry y="40" width="139.58" height="40" as="geometry"/>
        </mxCell>
        <mxCell id="nIeVzLM0rbKuAaq77vy3-27" value="&lt;font style=&quot;font-size: 12px&quot;&gt;`c_1^A`&lt;/font&gt;" style="shape=partialRectangle;html=1;whiteSpace=wrap;connectable=0;fillColor=none;top=0;left=0;bottom=0;right=0;overflow=hidden;" parent="nIeVzLM0rbKuAaq77vy3-26" vertex="1">
          <mxGeometry width="79" height="40" as="geometry"/>
        </mxCell>
        <mxCell id="nIeVzLM0rbKuAaq77vy3-28" value="10" style="shape=partialRectangle;html=1;whiteSpace=wrap;connectable=0;fillColor=none;top=0;left=0;bottom=0;right=0;overflow=hidden;" parent="nIeVzLM0rbKuAaq77vy3-26" vertex="1">
          <mxGeometry x="79" width="61" height="40" as="geometry"/>
        </mxCell>
        <mxCell id="nIeVzLM0rbKuAaq77vy3-30" value="" style="shape=partialRectangle;html=1;whiteSpace=wrap;collapsible=0;dropTarget=0;pointerEvents=0;fillColor=none;top=0;left=0;bottom=0;right=0;points=[[0,0.5],[1,0.5]];portConstraint=eastwest;" parent="nIeVzLM0rbKuAaq77vy3-21" vertex="1">
          <mxGeometry y="80" width="139.58" height="40" as="geometry"/>
        </mxCell>
        <mxCell id="nIeVzLM0rbKuAaq77vy3-31" value="&lt;div&gt;`c_2^A`&lt;/div&gt;" style="shape=partialRectangle;html=1;whiteSpace=wrap;connectable=0;fillColor=none;top=0;left=0;bottom=0;right=0;overflow=hidden;" parent="nIeVzLM0rbKuAaq77vy3-30" vertex="1">
          <mxGeometry width="79" height="40" as="geometry"/>
        </mxCell>
        <mxCell id="nIeVzLM0rbKuAaq77vy3-32" value="5" style="shape=partialRectangle;html=1;whiteSpace=wrap;connectable=0;fillColor=none;top=0;left=0;bottom=0;right=0;overflow=hidden;" parent="nIeVzLM0rbKuAaq77vy3-30" vertex="1">
          <mxGeometry x="79" width="61" height="40" as="geometry"/>
        </mxCell>
        <mxCell id="XZUq1Dh7aWPkDNdsNbKA-9" style="shape=partialRectangle;html=1;whiteSpace=wrap;collapsible=0;dropTarget=0;pointerEvents=0;fillColor=none;top=0;left=0;bottom=0;right=0;points=[[0,0.5],[1,0.5]];portConstraint=eastwest;" parent="nIeVzLM0rbKuAaq77vy3-21" vertex="1">
          <mxGeometry y="120" width="139.58" height="40" as="geometry"/>
        </mxCell>
        <mxCell id="XZUq1Dh7aWPkDNdsNbKA-10" value="&lt;div&gt;`c_3^A`&lt;/div&gt;" style="shape=partialRectangle;html=1;whiteSpace=wrap;connectable=0;fillColor=none;top=0;left=0;bottom=0;right=0;overflow=hidden;" parent="XZUq1Dh7aWPkDNdsNbKA-9" vertex="1">
          <mxGeometry width="79" height="40" as="geometry"/>
        </mxCell>
        <mxCell id="XZUq1Dh7aWPkDNdsNbKA-11" value="5" style="shape=partialRectangle;html=1;whiteSpace=wrap;connectable=0;fillColor=none;top=0;left=0;bottom=0;right=0;overflow=hidden;" parent="XZUq1Dh7aWPkDNdsNbKA-9" vertex="1">
          <mxGeometry x="79" width="61" height="40" as="geometry"/>
        </mxCell>
        <mxCell id="2n6Q4Vot2z7yCK3L4Qoa-3" value="" style="shape=table;html=1;whiteSpace=wrap;startSize=0;container=1;collapsible=0;childLayout=tableLayout;" parent="nIeVzLM0rbKuAaq77vy3-1" vertex="1">
          <mxGeometry x="490" y="320.21" width="140" height="79.36999999999989" as="geometry"/>
        </mxCell>
        <mxCell id="2n6Q4Vot2z7yCK3L4Qoa-4" value="" style="shape=partialRectangle;html=1;whiteSpace=wrap;collapsible=0;dropTarget=0;pointerEvents=0;fillColor=none;top=0;left=0;bottom=0;right=0;points=[[0,0.5],[1,0.5]];portConstraint=eastwest;" parent="2n6Q4Vot2z7yCK3L4Qoa-3" vertex="1">
          <mxGeometry width="140" height="79" as="geometry"/>
        </mxCell>
        <mxCell id="2n6Q4Vot2z7yCK3L4Qoa-5" value="&lt;div&gt;Order Undecided:&lt;br&gt;`c_3^A`, `c_2^A`, `c_1^A`&lt;br&gt;or&lt;br&gt;`c_2^A`, `c_3^A`, `c_1^A`&lt;/div&gt;" style="shape=partialRectangle;html=1;whiteSpace=wrap;connectable=0;fillColor=none;top=0;left=0;bottom=0;right=0;overflow=hidden;" parent="2n6Q4Vot2z7yCK3L4Qoa-4" vertex="1">
          <mxGeometry width="140" height="79" as="geometry"/>
        </mxCell>
        <mxCell id="g6t1xagoWl222UPxxIbO-0" value="A&lt;br&gt;&lt;div&gt;&lt;br&gt;&lt;/div&gt;&lt;div&gt;&lt;br&gt;&lt;/div&gt;" style="whiteSpace=wrap;html=1;rounded=0;shadow=0;strokeWidth=1;fillColor=#6d8764;fontSize=24;align=right;strokeColor=#3A5431;" parent="nIeVzLM0rbKuAaq77vy3-1" vertex="1">
          <mxGeometry x="280" y="250" width="20" height="20" as="geometry"/>
        </mxCell>
      </root>
    </mxGraphModel>
  </diagram>
</mxfile>
